HIERARCHY
ROOT Hips
{
	OFFSET 0.00 0.00 0.00
	CHANNELS 6 Xposition Yposition Zposition Xrotation Yrotation Zrotation
	JOINT LeftUpLeg
	{
		OFFSET 3.28590 0.00000 0.00000
		CHANNELS 3 Xrotation Yrotation Zrotation
		JOINT LeftLeg
		{
			OFFSET 0.00000 -16.12946 0.00000
			CHANNELS 3 Xrotation Yrotation Zrotation
			JOINT LeftFoot
			{
				OFFSET 0.00000 -15.45666 0.00000
				CHANNELS 3 Xrotation Yrotation Zrotation
				JOINT LeftToeBase
				{
					OFFSET 0.00000 -1.41942 5.29737
					CHANNELS 3 Xrotation Yrotation Zrotation
					End Site
					{
						OFFSET 0.00000 0.00000 2.95275
					}
				}
			}
		}
	}
	JOINT RightUpLeg
	{
		OFFSET -3.28590 0.00000 0.00000
		CHANNELS 3 Xrotation Yrotation Zrotation
		JOINT RightLeg
		{
			OFFSET 0.00000 -16.12946 0.00000
			CHANNELS 3 Xrotation Yrotation Zrotation
			JOINT RightFoot
			{
				OFFSET 0.00000 -15.45666 0.00000
				CHANNELS 3 Xrotation Yrotation Zrotation
				JOINT RightToeBase
				{
					OFFSET 0.00000 -1.41942 5.29737
					CHANNELS 3 Xrotation Yrotation Zrotation
					End Site
					{
						OFFSET 0.00000 0.00000 2.95275
					}
				}
			}
		}
	}
	JOINT Spine
	{
		OFFSET 0.00000 0.03937 0.00000
		CHANNELS 3 Xrotation Yrotation Zrotation
		JOINT Spine1
		{
			OFFSET 0.00000 6.25455 0.00000
			CHANNELS 3 Xrotation Yrotation Zrotation
			JOINT Neck
			{
				OFFSET 0.00000 11.77789 0.00000
				CHANNELS 3 Xrotation Yrotation Zrotation
				JOINT Head
				{
					OFFSET 0.00000 7.25432 0.00000
					CHANNELS 3 Xrotation Yrotation Zrotation
					End Site
					{
						OFFSET 0.00000 4.52755 0.00000
					}
				}
			}
			JOINT LeftShoulder
			{
				OFFSET 0.00000 11.77789 0.00000
				CHANNELS 3 Xrotation Yrotation Zrotation
				JOINT LeftArm
				{
					OFFSET 8.12235 -0.00003 0.00000
					CHANNELS 3 Xrotation Yrotation Zrotation
					JOINT LeftForeArm
					{
						OFFSET 10.26986 -0.00004 0.00000
						CHANNELS 3 Xrotation Yrotation Zrotation
						JOINT LeftHand
						{
							OFFSET 10.02459 -0.00004 0.00000
							CHANNELS 3 Xrotation Yrotation Zrotation
							JOINT LeftHandThumb
							{
								OFFSET 0.00000 0.00000 0.00000
								CHANNELS 3 Xrotation Yrotation Zrotation
								End Site
								{
									OFFSET 0.00000 0.00000 3.93700
								}
							}
							JOINT L_Wrist_End
							{
								OFFSET 3.93700 -0.00001 0.00000
								CHANNELS 3 Xrotation Yrotation Zrotation
							}
						}
					}
				}
			}
			JOINT RightShoulder
			{
				OFFSET 0.00000 11.77789 0.00000
				CHANNELS 3 Xrotation Yrotation Zrotation
				JOINT RightArm
				{
					OFFSET -8.12235 -0.00003 0.00000
					CHANNELS 3 Xrotation Yrotation Zrotation
					JOINT RightForeArm
					{
						OFFSET -10.26986 -0.00004 0.00000
						CHANNELS 3 Xrotation Yrotation Zrotation
						JOINT RightHand
						{
							OFFSET -10.02459 -0.00004 0.00000
							CHANNELS 3 Xrotation Yrotation Zrotation
							JOINT RightHandThumb
							{
								OFFSET 0.00000 0.00000 0.00000
								CHANNELS 3 Xrotation Yrotation Zrotation
								End Site
								{
									OFFSET 0.00000 0.00000 3.93700
								}
							}
							JOINT R_Wrist_End
							{
								OFFSET -5.39369 -0.00002 0.00000
								CHANNELS 3 Xrotation Yrotation Zrotation
							}
						}
					}
				}
			}
		}
	}
}
MOTION
Frames: 14
Frame Time: 0.066664
 -4.4190 32.0304 56.5190 -1.5004 -3.4136 -4.4901 -20.5376 6.8134 3.3377 11.9229 -0.0000 0.0000 -11.5514 10.5804 -32.3303 12.0937 -0.0000 -0.0000 16.7491 -7.6850 4.4798 12.9417 -0.0000 0.0000 -18.3980 -7.5344 5.8694 -11.8393 0.0000 -0.0000 1.1176 8.4148 16.2834 1.8892 10.0148 -18.9242 0.9487 0.2100 2.4103 -7.8582 -8.5803 1.2085 -24.8478 9.5711 14.8550 32.0518 -17.5656 -74.6561 0.0000 1.8128 -0.0000 -25.4022 5.0315 -4.3709 -0.0000 0.0000 -0.0000 -0.0000 0.0000 -0.0000 -13.7463 -9.3683 -6.9149 -5.7656 19.6214 83.5512 -0.0001 29.6890 0.0000 -13.7325 11.7167 -3.1799 -0.0000 0.0000 -0.0000 -0.0000 0.0000 -0.0000
 -4.6440 32.1215 53.4774 -2.4266 -5.8795 -8.2222 -24.2569 7.4900 9.7029 12.0085 -0.0000 0.0000 -11.7343 10.3155 -46.3942 7.3056 0.0000 0.0000 13.9701 -3.3595 8.6664 8.9234 -0.0000 0.0000 -18.2679 -8.4071 5.0010 -7.1162 -0.0000 0.0000 1.9632 8.4312 19.1203 3.3059 9.7960 -18.2537 -0.5622 2.2726 4.9034 -9.7132 -10.1701 -0.0340 -24.8279 7.5661 15.1095 30.8874 -17.9743 -78.8373 0.0000 3.9444 -0.0000 -25.4056 5.1680 -4.0646 -0.0000 -0.0000 0.0000 -0.0000 -0.0000 0.0000 -13.0662 -10.6231 -4.6368 -8.7954 22.1886 82.3870 -0.0002 36.3624 0.0001 -14.7046 13.2778 -3.2570 -0.0000 0.0000 -0.0000 -0.0000 0.0000 -0.0000
 -4.4640 32.6037 50.9154 -2.4986 -4.7285 -7.3196 -24.1169 2.1963 9.3957 17.0833 -0.0000 0.0000 -19.5902 12.0102 -37.9288 8.3669 -0.0000 0.0000 9.8890 -2.3360 8.3901 7.4734 -0.0000 0.0000 -14.6862 -10.7441 5.5589 -6.3134 0.0000 -0.0000 1.2319 3.2328 10.5203 3.7196 4.8042 -6.2333 -2.5335 10.7412 3.7482 -8.0016 -12.1404 0.0421 -24.9979 12.6361 12.9704 28.2606 -21.5739 -83.0123 0.0000 6.1388 -0.0000 -26.4044 6.5735 -4.8321 -0.0000 -0.0000 0.0000 -0.0000 -0.0000 0.0000 -12.3508 -7.1580 -4.5476 -8.1670 24.9012 82.1232 -0.0002 39.6364 0.0001 -15.2347 15.0080 -2.9613 -0.0000 0.0000 -0.0000 -0.0000 0.0000 -0.0000
 -4.1633 32.9310 48.6590 -3.2189 -4.4960 -5.9759 -22.3004 2.2644 9.6006 29.9426 -0.0000 0.0000 -27.4832 13.7461 -32.0880 8.2508 -0.0000 0.0000 7.0824 -3.3374 6.9298 6.2130 -0.0000 0.0000 -11.2013 -10.4889 6.1080 -5.3151 0.0000 -0.0000 1.7928 2.0204 8.7156 3.0764 3.2567 -4.9059 -1.5999 11.4736 4.0526 -7.8391 -12.5007 0.8278 -24.2582 9.3248 11.5552 24.6311 -27.6594 -86.6619 0.0000 4.0808 -0.0000 -22.3827 7.2929 -3.2657 -0.0000 -0.0000 0.0000 -0.0000 -0.0000 0.0000 -9.4668 -9.4288 -4.4504 -5.3476 23.7599 84.3662 -0.0002 39.5099 0.0001 -16.2193 14.2939 -2.7679 -0.0000 0.0000 -0.0000 -0.0000 0.0000 -0.0000
 -3.9220 32.8585 46.6512 -4.3405 -4.9940 -6.7233 -17.5743 2.0325 12.4307 46.6850 -0.0000 0.0000 -32.5922 12.3587 -32.0873 7.6417 0.0000 0.0000 5.3498 -4.4429 7.3696 4.8771 -0.0000 0.0000 -8.8398 -9.0719 8.2283 -5.0069 -0.0000 0.0000 0.4145 0.3124 6.0144 4.9114 1.6783 0.2170 -1.9644 12.3038 2.9323 -6.6165 -11.5041 0.9750 -25.4581 8.5656 9.2875 21.8287 -30.8306 -87.0589 -0.0000 -1.0648 -0.0000 -24.0917 4.5630 -1.8091 -0.0000 0.0000 -0.0000 -0.0000 0.0000 -0.0000 -7.5220 -11.4396 -4.0537 -1.9931 25.4488 83.9803 -0.0001 33.3265 0.0000 -17.1477 13.3989 -2.0077 -0.0000 0.0000 -0.0000 -0.0000 0.0000 -0.0000
 -3.7082 32.6988 44.7798 -5.3087 -3.5722 -8.2712 -8.9248 1.9122 15.3119 57.3015 -0.0000 0.0000 -34.4958 11.0388 -36.6734 7.7374 -0.0000 0.0000 3.8048 -5.0834 8.7329 3.8112 -0.0000 0.0000 -6.2437 -9.4454 10.0441 -5.0042 0.0000 0.0000 -0.2719 -1.7850 2.4519 4.9874 -0.3600 6.7663 -1.7807 11.6632 2.2983 -4.7862 -9.9668 0.2296 -26.5900 7.0730 7.3453 18.3931 -30.4542 -87.4290 -0.0000 -5.4976 -0.0000 -24.1405 1.3442 -1.0328 -0.0000 0.0000 -0.0000 -0.0000 0.0000 -0.0000 -5.3813 -14.5147 -3.5279 1.7085 28.3417 81.4801 -0.0001 22.3229 0.0000 -12.9915 8.7650 -2.4011 -0.0000 0.0000 -0.0000 -0.0000 0.0000 -0.0000
 -3.3783 32.5173 42.7292 -5.4227 -0.2417 -9.4023 0.9039 1.1925 17.0774 57.9024 -0.0000 0.0000 -31.6985 8.0660 -45.1809 5.3862 -0.0000 0.0000 1.0246 -8.0984 9.4303 3.8490 0.0000 0.0000 -3.2385 -9.8826 11.1357 -5.2270 0.0000 0.0000 -0.0826 -4.5203 -2.3839 3.5805 -2.9538 14.0569 0.1090 11.5935 1.5867 -5.5812 -8.9027 -0.4230 -28.2352 3.6577 6.5022 14.3502 -29.5568 -89.6468 -0.0000 -8.6002 -0.0000 -23.8779 0.6175 -2.1960 -0.0000 0.0000 -0.0000 -0.0000 0.0000 -0.0000 -4.1822 -16.4440 -4.6974 6.8092 23.8532 79.5705 -0.0000 12.8736 0.0000 -10.4276 5.3200 -3.9684 -0.0000 -0.0000 0.0000 -0.0000 -0.0000 0.0000
 -2.7387 32.2572 40.2820 -4.9467 4.2698 -8.7401 9.8209 -0.1935 15.8262 45.3488 -0.0000 0.0000 -24.8526 7.4305 -41.9004 -1.9635 0.0000 0.0000 -3.1330 -12.7938 7.1999 3.9469 -0.0000 0.0000 0.3691 -10.0041 13.0560 -5.3385 -0.0000 -0.0000 0.5771 -7.2268 -5.9466 2.5828 -5.6822 17.4414 0.7854 11.1945 1.2458 -7.2289 -8.1798 -0.8291 -30.6921 0.6948 6.2119 9.5099 -33.0479 -91.0289 -0.0000 -11.3528 -0.0000 -22.7872 0.4488 -3.0660 -0.0000 0.0000 -0.0000 -0.0000 0.0000 -0.0000 -4.2731 -17.8763 -6.3252 11.4909 12.1069 78.6969 -0.0000 7.9432 0.0000 -11.8149 5.9041 -5.5446 -0.0000 -0.0000 0.0000 -0.0000 -0.0000 0.0000
 -1.7501 31.9359 37.1767 -3.1181 10.3086 -5.7438 12.9128 -2.1830 11.8415 26.4379 -0.0000 0.0000 -35.1006 8.3980 -38.2972 0.6754 0.0000 0.0000 -11.3471 -17.2744 0.2988 5.5075 -0.0000 0.0000 2.7072 -11.7863 15.2557 -6.6267 0.0000 -0.0000 2.6075 -9.9365 -9.0185 -0.3401 -8.1204 18.0527 0.8312 9.9031 1.0450 -9.9696 -7.9576 -1.5745 -33.6148 -1.5715 5.8172 3.6297 -36.3074 -93.0184 -0.0001 -13.7655 -0.0000 -21.5633 0.2790 -2.8358 -0.0000 0.0000 -0.0000 -0.0000 0.0000 -0.0000 -4.2734 -19.3939 -8.2987 15.5303 5.8908 78.7768 -0.0000 6.9031 0.0000 -12.6196 5.3726 -4.8785 -0.0000 -0.0000 0.0000 -0.0000 -0.0000 0.0000
 -0.7579 31.8651 33.9226 -2.2207 15.5893 -1.0252 9.4677 -5.0450 5.5720 18.6341 -0.0000 0.0000 -38.5104 6.2188 -35.2435 8.7047 -0.0000 0.0000 -19.7664 -18.6796 -9.5907 8.4046 -0.0000 0.0000 0.4157 -12.5368 15.1205 -10.7313 0.0000 -0.0000 5.4838 -11.3677 -10.4687 -4.2908 -8.6413 14.9385 0.1005 7.2687 0.2717 -11.5297 -8.5801 -1.5671 -35.6639 -2.7879 5.4456 -1.0217 -39.5361 -95.1806 -0.0001 -17.5821 -0.0000 -20.8100 0.2529 -3.9685 -0.0000 -0.0000 0.0000 -0.0000 -0.0000 0.0000 -3.9213 -19.8222 -9.4685 19.3130 2.6805 81.3438 -0.0000 6.5069 0.0000 -12.6984 5.2942 -4.9533 -0.0000 -0.0000 0.0000 -0.0000 -0.0000 0.0000
 -0.2034 32.3443 31.0957 -1.7541 17.9036 -0.1826 3.9053 -9.8636 1.9424 18.3347 -0.0000 0.0000 -35.3720 7.6247 -32.0786 9.7270 -0.0000 0.0000 -21.3834 -12.9409 -12.1245 12.3887 -0.0000 0.0000 0.1566 -10.7256 12.3657 -10.2573 0.0000 0.0000 6.4241 -10.2099 -10.0610 -5.6240 -7.1936 13.4964 0.3409 4.0704 -1.4755 -14.2973 -9.1367 -1.8088 -34.7786 -1.3866 4.7613 -2.5752 -42.4554 -95.8994 -0.0001 -23.6814 -0.0000 -19.3470 -0.0737 -4.2272 -0.0000 -0.0000 0.0000 -0.0000 -0.0000 0.0000 -3.2286 -18.3042 -9.6975 20.8697 4.3809 85.0405 -0.0000 4.7221 0.0000 -13.0158 3.5828 -3.0286 -0.0000 0.0000 -0.0000 -0.0000 0.0000 -0.0000
 -0.0047 32.8957 28.8114 -2.3817 16.8151 -1.7641 2.6911 -7.7653 2.4053 14.0221 -0.0000 0.0000 -29.9858 6.6362 -31.5940 9.9522 -0.0000 0.0000 -20.0637 -10.2054 -8.4332 25.1287 -0.0000 0.0000 -4.1949 -10.7473 9.7139 -11.1008 0.0000 -0.0000 5.7168 -7.8841 -7.9399 -4.7024 -4.8166 11.5281 0.7508 1.5839 -2.2809 -15.4189 -8.7581 -1.1604 -31.8245 0.1892 6.8148 1.4094 -41.5555 -95.4198 -0.0001 -30.0659 -0.0000 -19.5229 0.1385 -5.3126 -0.0000 0.0000 -0.0000 -0.0000 0.0000 -0.0000 -2.4882 -15.7005 -9.5672 18.4812 14.3682 88.2095 -0.0000 4.2027 0.0000 -12.1795 1.1429 -0.0856 -0.0000 -0.0000 0.0000 -0.0000 -0.0000 0.0000
 0.1898 32.9954 26.7309 -3.1142 17.0644 -1.5590 1.5561 -6.0913 1.4127 10.1329 -0.0000 0.0000 -26.2525 4.4416 -30.6009 10.7702 -0.0000 0.0000 -17.4407 -12.5943 -6.3198 44.2799 -0.0000 0.0000 -11.3198 -12.6668 7.7388 -11.8163 0.0000 0.0000 4.9281 -6.3132 -5.7676 -4.5158 -3.0325 7.4185 0.8697 -1.7099 -2.4363 -14.8775 -8.3857 -0.0391 -28.7307 2.1626 7.8387 8.6660 -45.0029 -91.1135 -0.0001 -32.6666 -0.0000 -22.5798 0.7453 -7.2851 -0.0000 -0.0000 0.0000 -0.0000 -0.0000 0.0000 -2.6606 -14.4596 -8.7922 15.4366 19.6966 88.8774 -0.0000 7.9857 0.0000 -12.7318 2.8021 -0.8606 -0.0000 0.0000 -0.0000 -0.0000 0.0000 -0.0000
 0.5664 32.7649 24.7151 -3.7137 17.2215 0.9938 -0.8882 -5.0332 -2.3609 8.8134 -0.0000 0.0000 -24.2198 3.6201 -32.9124 11.0939 -0.0000 0.0000 -10.9318 -15.4871 -6.2185 60.8161 -0.0000 0.0000 -13.1510 -9.8960 9.0929 -13.2489 0.0000 -0.0000 3.7167 -4.2480 2.2169 -4.8307 0.0929 -7.6100 2.3534 -6.4433 0.0990 -15.1713 -8.2758 1.3425 -25.9166 2.0198 9.4325 19.0678 -51.5824 -82.1900 -0.0001 -29.5148 -0.0000 -20.8737 2.5395 -7.5226 -0.0000 0.0000 -0.0000 -0.0000 0.0000 -0.0000 -3.0683 -14.7300 -5.1727 12.5398 21.7426 88.0581 -0.0000 13.2372 0.0000 -13.2759 5.6596 -1.6474 -0.0000 0.0000 -0.0000 -0.0000 0.0000 -0.0000
